<?xml version="1.0" standalone="no"?>
<!DOCTYPE svg PUBLIC "-//W3C//DTD SVG 20010904//EN"
 "http://www.w3.org/TR/2001/REC-SVG-20010904/DTD/svg10.dtd">
<svg version="1.0" xmlns="http://www.w3.org/2000/svg"
 width="986.000000pt" height="986.000000pt" viewBox="0 0 986.000000 986.000000"
 preserveAspectRatio="xMidYMid meet">
<metadata>
Created by potrace 1.11, written by Peter Selinger 2001-2013
</metadata>
<g transform="translate(0.000000,986.000000) scale(0.100000,-0.100000)"
fill="#000000" stroke="none">
<path d="M4 8917 c20 -346 136 -646 353 -917 190 -237 454 -434 708 -529 33
-13 69 -27 80 -31 31 -13 131 -38 225 -57 77 -15 207 -17 1423 -20 l1337 -4 0
831 0 830 -2066 0 -2066 0 6 -103z"/>
<path d="M5062 6764 l3 -2257 1125 -2 c619 -1 1150 -5 1180 -9 83 -13 214 -53
283 -87 195 -99 367 -271 466 -466 103 -205 125 -490 56 -727 -70 -241 -251
-463 -482 -594 -40 -23 -73 -38 -73 -35 0 3 -6 1 -12 -4 -14 -11 -126 -48
-173 -57 -16 -4 -41 -9 -55 -13 -14 -3 -533 -7 -1155 -9 -621 -2 -1138 -3
-1147 -3 -17 -1 -18 -48 -18 -836 l0 -835 1153 1 c633 1 1188 5 1232 9 158 17
191 22 310 46 503 102 931 338 1315 723 148 149 163 166 261 296 253 335 406
682 484 1095 3 14 7 36 10 50 4 23 7 43 21 155 16 134 10 505 -11 680 -82 679
-473 1331 -1063 1774 -209 157 -377 251 -632 352 -54 21 -265 86 -305 93 -11
2 -31 7 -45 10 -14 3 -37 8 -52 11 -16 3 -38 7 -50 9 -27 6 -173 26 -238 33
-25 2 -191 6 -370 8 -179 2 -332 4 -340 4 -13 1 -15 79 -15 639 -1 350 -4 671
-8 712 -37 378 -197 715 -466 987 -308 311 -672 477 -1094 499 l-97 5 2 -2257z"/>
<path d="M1854 6070 c3 -60 8 -115 11 -122 2 -7 6 -31 9 -53 8 -62 14 -86 42
-181 70 -243 200 -463 393 -666 266 -280 561 -441 921 -502 123 -21 168 -24
518 -25 l382 -2 0 831 0 830 -1141 0 -1141 0 6 -110z"/>
</g>
</svg>
