<?xml version="1.0" encoding="UTF-8"?>
<svg width="697px" height="141px" viewBox="0 0 697 141" version="1.1" xmlns="http://www.w3.org/2000/svg" xmlns:xlink="http://www.w3.org/1999/xlink">
    <!-- Generator: Sketch 46.2 (44496) - http://www.bohemiancoding.com/sketch -->
    <title>band</title>
    <desc>Created with Sketch.</desc>
    <defs></defs>
    <g id="Page-1" stroke="none" stroke-width="1" fill="none" fill-rule="evenodd">
        <g id="band" transform="translate(-1.000000, 0.000000)" fill-rule="nonzero">
            <path d="M205.216,139 L264.016,0.82 L291.848,0.82 L350.648,139 L319.092,139 L306.548,108.228 L248.532,108.228 L235.988,139 L205.216,139 Z M259.312,81.572 L295.768,81.572 L277.54,37.08 L259.312,81.572 Z M393.816,139 L423.608,139 L423.608,51.78 L490.052,139 L515.728,139 L515.728,1.8 L485.936,1.8 L485.936,86.276 L421.648,1.8 L393.816,1.8 L393.816,139 Z M570.656,139 L570.656,1.8 L624.164,1.8 C667.284,1.8 697.076,31.396 697.076,70.008 L697.076,70.4 C697.076,109.012 667.284,139 624.164,139 L570.656,139 Z M600.84,111.756 L624.164,111.756 C648.86,111.756 665.52,95.096 665.52,70.792 L665.52,70.4 C665.52,46.096 648.86,29.044 624.164,29.044 L600.84,29.044 L600.84,111.756 Z" id="BAND" fill="#000000"></path>
            <g id="Group">
                <path d="M157.88,126.82 C166.456666,118.248758 171.275443,106.620403 171.275443,94.495 C171.275443,82.3695971 166.456666,70.7412421 157.88,62.17 C149.920911,53.9444958 139.061114,49.1569981 127.62,48.83 L117.62,48.77 L117.62,28.7 C117.741833,21.0992293 114.711995,13.7870753 109.25,8.5 C107.006084,6.29678125 104.444219,4.44280019 101.65,3 C97.7060984,1.10029345 93.3773562,0.135309016 89,0.18 L89,77.33 L126,77.33 C135.296689,77.5546698 142.716146,85.1555965 142.716146,94.455 C142.716146,103.754404 135.296689,111.35533 126,111.58 L126,111.58 L89,111.58 L89,140.15 L126.31,140.15 C127.016667,140.15 127.763333,140.123333 128.55,140.07 C139.654356,139.537434 150.140236,134.800376 157.88,126.82 L157.88,126.82 L157.88,126.82 Z" id="Shape" fill="#000000"></path>
                <path d="M41.24,68.93 C46.4760329,74.4156431 53.7677143,77.4613977 61.35,77.33 L83.48,77.33 L83.48,48.76 L32.78,48.76 C32.6791207,56.3659577 35.7434456,63.6718009 41.24,68.93 L41.24,68.93 L41.24,68.93 Z" id="Shape" fill-opacity="0.85" fill="#0277BD"></path>
                <path d="M83.49,28.76 L83.49,0.18 L1,0.18 C0.909675499,7.7955866 3.97142525,15.1097666 9.46,20.39 C14.7234852,25.8320479 21.9996587,28.8604702 29.57,28.76 L83.49,28.76 L83.49,28.76 Z" id="Shape" fill-opacity="0.85" fill="#0277BD"></path>
            </g>
        </g>
    </g>
</svg>