<svg width="2462" height="438" xmlns="http://www.w3.org/2000/svg">
 <!-- Generator: Sketch 53 (72520) - https://sketchapp.com -->

 <title>Artboard</title>
 <desc>Created with Sketch.</desc>
 <g>
  <title>background</title>
  <rect fill="none" id="canvas_background" height="402" width="582" y="-1" x="-1"/>
 </g>
 <g>
  <title>Layer 1</title>
  <g fill-rule="evenodd" fill="none" id="Artboard">
   <path fill-rule="nonzero" fill="#ffffff" id="LEND" d="m964.94,437l-311.86,0l0,-434l95.48,0l0,347.2l216.38,0l0,86.8zm442.38,0l-330.46,0l0,-434l327.36,0l0,84.94l-232.5,0l0,88.04l204.6,0l0,84.94l-204.6,0l0,91.14l235.6,0l0,84.94zm510.58,0l-81.22,0l-210.18,-275.9l0,275.9l-94.24,0l0,-434l88.04,0l203.36,267.22l0,-267.22l94.24,0l0,434zm544.06,-217c0,122.14 -94.24,217 -230.64,217l-169.26,0l0,-434l169.26,0c136.4,0 230.64,93.62 230.64,215.76l0,1.24zm-99.82,1.24l0,-1.24c0,-76.88 -52.7,-130.82 -130.82,-130.82l-73.78,0l0,261.64l73.78,0c78.12,0 130.82,-52.7 130.82,-129.58z"/>
   <g fill-rule="nonzero" id="Group">
    <path fill="#ffffff" id="Shape" d="m496.95669,390.99285c27.6053,-27.90858 41.40821,-61.30295 41.40821,-100.18153c0,-38.97345 -13.80291,-72.28455 -41.40821,-99.93436c-26.07409,-26.11564 -57.24798,-39.88151 -93.52113,-41.29657l-31.09127,-0.17708l0,-62.10508c0,-24.44075 -8.62104,-45.28404 -25.86257,-62.52933c-6.88567,-6.79229 -14.74531,-12.51736 -23.31846,-16.986c-12.1791,-5.8936 -25.55053,-8.89669 -39.07614,-8.77611l0,238.79431l114.26075,0c14.62691,0 27.11068,5.16642 37.45076,15.49926c10.34008,10.33337 15.52248,22.83702 15.54563,37.51096c0,14.65022 -5.18188,27.15387 -15.54563,37.51043c-10.36376,10.35656 -22.81174,15.54669 -37.345,15.57041c-14.53273,0.02371 -14.55641,0.02371 -0.07051,0l-114.296,0l0,88.46841l115.24998,0c2.19051,0 4.49889,-0.08221 6.92461,-0.2477c35.11922,-2.02852 65.35071,-15.73537 90.69498,-41.12002z"/>
    <path fill="#ffffff" id="Shape" d="m124.19443,211.53759c17.09328,17.27346 37.88683,25.90967 62.38011,25.90967l68.69265,0l0,-88.05729l-157.31583,0c0,24.18243 8.74734,44.8983 26.24307,62.14762z"/>
    <path fill="#ffffff" id="Shape" d="m255.26719,87.05729l0,-88.05729l-255.26719,0c0,24.13945 8.72588,44.89739 26.17763,62.27392c17.31025,17.18874 38.05182,25.78337 62.22492,25.78337l166.86464,0z"/>
   </g>
  </g>
 </g>
</svg>