<?xml version="1.0" encoding="UTF-8"?>
<svg width="2462px" height="438px" viewBox="0 0 2462 438" version="1.1" xmlns="http://www.w3.org/2000/svg" xmlns:xlink="http://www.w3.org/1999/xlink">
    <!-- Generator: Sketch 53 (72520) - https://sketchapp.com -->
    <title>Artboard</title>
    <desc>Created with Sketch.</desc>
    <g id="Artboard" stroke="none" stroke-width="1" fill="none" fill-rule="evenodd">
        <path d="M964.94,438 L653.08,438 L653.08,4 L748.56,4 L748.56,351.2 L964.94,351.2 L964.94,438 Z M1407.32,438 L1076.86,438 L1076.86,4 L1404.22,4 L1404.22,88.94 L1171.72,88.94 L1171.72,176.98 L1376.32,176.98 L1376.32,261.92 L1171.72,261.92 L1171.72,353.06 L1407.32,353.06 L1407.32,438 Z M1917.9,438 L1836.68,438 L1626.5,162.1 L1626.5,438 L1532.26,438 L1532.26,4 L1620.3,4 L1823.66,271.22 L1823.66,4 L1917.9,4 L1917.9,438 Z M2461.96,221 C2461.96,343.14 2367.72,438 2231.32,438 L2062.06,438 L2062.06,4 L2231.32,4 C2367.72,4 2461.96,97.62 2461.96,219.76 L2461.96,221 Z M2362.14,222.24 L2362.14,221 C2362.14,144.12 2309.44,90.18 2231.32,90.18 L2157.54,90.18 L2157.54,351.82 L2231.32,351.82 C2309.44,351.82 2362.14,299.12 2362.14,222.24 Z" id="LEND" fill="#333333" fill-rule="nonzero"></path>
        <g id="Group" fill-rule="nonzero">
            <path d="M496.956693,391.99285 C524.561986,364.084275 538.364895,330.689904 538.364895,291.811318 C538.364895,252.837867 524.561986,219.526766 496.956693,191.876961 C470.882601,165.761323 439.708714,151.995447 403.43556,150.580387 L372.344285,150.403307 L372.344285,88.2982304 C372.344285,63.8574762 363.723255,43.0141903 346.48172,25.7688995 C339.596051,18.9766097 331.736411,13.2515442 323.163264,8.78290474 C310.984164,2.88929684 297.612727,-0.113793302 284.087117,0.00678986934 L284.087117,238.801101 L398.347868,238.801101 C412.974785,238.801101 425.458547,243.967521 435.798627,254.30036 C446.138707,264.633726 451.321112,277.137379 451.344264,291.811318 C451.344264,306.461541 446.162385,318.965194 435.798627,329.321749 C425.434868,339.678305 412.986887,344.86844 398.453632,344.892156 C383.920902,344.915872 383.897224,344.915872 398.383123,344.892156 L284.087117,344.892156 L284.087117,433.360572 L399.337098,433.360572 C401.52761,433.360572 403.835988,433.278356 406.261705,433.11287 C441.380933,431.084354 471.61242,417.377504 496.956693,391.99285 Z" id="Shape" fill="#333333"></path>
            <path d="M124.194433,212.537585 C141.28771,229.811048 162.081256,238.447255 186.574543,238.447255 L255.267186,238.447255 L255.267186,150.38997 L97.9513621,150.38997 C97.9513621,174.572399 106.6987,195.288271 124.194433,212.537585 Z" id="Shape" fill="#FF00FF"></path>
            <path d="M255.267186,88.0572851 L255.267186,0 L0,0 C0,24.1394514 8.7258774,44.8973905 26.1776322,62.273922 C43.4878772,79.4626559 64.2294457,88.0572851 88.4025485,88.0572851 L255.267186,88.0572851 Z" id="Shape" fill="#FF00FF"></path>
        </g>
    </g>
</svg>