<?xml version="1.0" encoding="UTF-8"?>
<svg width="2462px" height="438px" viewBox="0 0 2462 438" version="1.1" xmlns="http://www.w3.org/2000/svg" xmlns:xlink="http://www.w3.org/1999/xlink">
    <!-- Generator: Sketch 57.1 (83088) - https://sketch.com -->
    <title>blend-white</title>
    <desc>Created with Sketch.</desc>
    <g id="Page-1" stroke="none" stroke-width="1" fill="none" fill-rule="evenodd">
        <g id="blend-white" transform="translate(-1.000000, 0.000000)">
            <g id="background">
                <rect id="canvas_background" x="0" y="0" width="582" height="402"></rect>
            </g>
            <g id="Layer-1" transform="translate(1.000000, 0.000000)" fill="#FFFFFF" fill-rule="nonzero">
                <g id="Artboard">
                    <path d="M964.94,438 L653.08,438 L653.08,4 L748.56,4 L748.56,351.2 L964.94,351.2 L964.94,438 Z M1407.32,438 L1076.86,438 L1076.86,4 L1404.22,4 L1404.22,88.94 L1171.72,88.94 L1171.72,176.98 L1376.32,176.98 L1376.32,261.92 L1171.72,261.92 L1171.72,353.06 L1407.32,353.06 L1407.32,438 Z M1917.9,438 L1836.68,438 L1626.5,162.1 L1626.5,438 L1532.26,438 L1532.26,4 L1620.3,4 L1823.66,271.22 L1823.66,4 L1917.9,4 L1917.9,438 L1917.9,438 Z M2461.96,221 C2461.96,343.14 2367.72,438 2231.32,438 L2062.06,438 L2062.06,4 L2231.32,4 C2367.72,4 2461.96,97.62 2461.96,219.76 L2461.96,221 L2461.96,221 Z M2362.14,222.24 L2362.14,221 C2362.14,144.12 2309.44,90.18 2231.32,90.18 L2157.54,90.18 L2157.54,351.82 L2231.32,351.82 C2309.44,351.82 2362.14,299.12 2362.14,222.24 Z" id="LEND"></path>
                    <g id="Group">
                        <path d="M496.95669,391.99285 C524.56199,364.08427 538.3649,330.6899 538.3649,291.81132 C538.3649,252.83787 524.56199,219.52677 496.95669,191.87696 C470.8826,165.76132 439.70871,151.99545 403.43556,150.58039 L372.34429,150.40331 L372.34429,88.29823 C372.34429,63.85748 363.72325,43.01419 346.48172,25.7689 C339.59605,18.97661 331.73641,13.25154 323.16326,8.7829 C310.98416,2.8893 297.61273,-0.11379 284.08712,0.00329734723 L284.08712,238.8011 L398.34787,238.8011 C412.97478,238.8011 425.45855,243.96752 435.79863,254.30036 C446.13871,264.63373 451.32111,277.13738 451.34426,291.81132 C451.34426,306.46154 446.16238,318.96519 435.79863,329.32175 C425.43487,339.67831 412.98689,344.86844 398.45363,344.89216 C383.9209,344.91587 383.89722,344.91587 398.38312,344.89216 L284.08712,344.89216 L284.08712,433.36057 L399.3371,433.36057 C401.52761,433.36057 403.83599,433.27836 406.26171,433.11287 C441.38093,431.08435 471.61242,417.3775 496.95669,391.99285 L496.95669,391.99285 Z" id="Shape"></path>
                        <path d="M186.57454,238.44726 L255.26719,238.44726 L255.26719,150.38997 L97.95136,150.38997 C97.95136,174.5724 106.6987,195.28827 124.19443,212.53759 C141.28771,229.81105 162.08126,238.44726 186.57454,238.44726 Z" id="Shape" opacity="0.7"></path>
                        <path d="M255.26719,88.05729 L255.26719,0 L0,0 C0,24.13945 8.72588,44.89739 26.17763,62.27392 C43.48788,79.46266 64.22945,88.05729 88.40255,88.05729 L255.26719,88.05729 Z" id="Shape" opacity="0.7"></path>
                    </g>
                </g>
            </g>
        </g>
    </g>
</svg>